<svg xmlns="http://www.w3.org/2000/svg" viewBox="0 0 423 35.4"><defs><linearGradient id="a" x2="423" y1="17.7" y2="17.7" gradientUnits="userSpaceOnUse"><stop offset="0" stop-color="#90cea1"/><stop offset=".6" stop-color="#3cbec9"/><stop offset="1" stop-color="#00b3e5"/></linearGradient></defs><g data-name="Layer 2"><path fill="url(#a)" d="M228 0h8l9 23 9-23h9l-15 35h-6Zm46 0h8v35h-8Zm22 0h24v7h-16v7h15v7h-15v7h17v7h-25Zm55 0h12a34 34 0 0 1 8 1 19 19 0 0 1 7 3 15 15 0 0 1 4 6 19 19 0 0 1 2 8 17 17 0 0 1-2 7 16 16 0 0 1-4 6 20 20 0 0 1-6 3 25 25 0 0 1-8 1h-13Zm8 28h4a22 22 0 0 0 5 0 11 11 0 0 0 4-2 9 9 0 0 0 3-4 12 12 0 0 0 1-5 10 10 0 0 0-1-4 9 9 0 0 0-3-3 12 12 0 0 0-4-2 17 17 0 0 0-4-1h-5Zm36-28h13a34 34 0 0 1 5 0 13 13 0 0 1 4 2 8 8 0 0 1 3 2 8 8 0 0 1 1 5 7 7 0 0 1-1 5 9 9 0 0 1-5 3 10 10 0 0 1 3 1 8 8 0 0 1 3 2 8 8 0 0 1 1 2 9 9 0 0 1 1 4 9 9 0 0 1-1 4 9 9 0 0 1-3 3 13 13 0 0 1-5 2 23 23 0 0 1-4 0h-15Zm8 14h6a8 8 0 0 0 1 0 5 5 0 0 0 2-1 3 3 0 0 0 1-1 4 4 0 0 0 1-2 3 3 0 0 0-1-2 3 3 0 0 0-1-1 6 6 0 0 0-2 0 11 11 0 0 0-2 0h-5Zm0 15h7a9 9 0 0 0 2 0 5 5 0 0 0 1-1 4 4 0 0 0 2-1 4 4 0 0 0 0-2 3 3 0 0 0 0-2 4 4 0 0 0-2-2 8 8 0 0 0-2 0 15 15 0 0 0-2 0h-6Zm-199 6h1a18 18 0 0 0 18-17 18 18 0 0 0-18-18h-1a18 18 0 0 0-18 18 18 18 0 0 0 18 17ZM10 7H0V0h28v7H18v28h-8Zm29-7h8v13h15V0h8v35h-8V20H47v15h-8Zm41 0h24v7H88v7h15v7H88v7h17v7H80Zm55 0h12l8 23 8-23h12v35h-8V8l-9 27h-6l-9-27v27h-8Z" data-name="Layer 1"/></g></svg>